<svg xmlns="http://www.w3.org/2000/svg" fill="none" class="Navigation_logoWordmark__h4Jp0" data-sentry-element="IconLogoWordmark" data-sentry-source-file="Navigation.tsx" viewBox="0 0 62 31"><g fill="#fff" clip-path="url(#a)"><path d="M33.183 6.886c-2.386 0-4.464 1.112-5.483 2.796V7.156h-3.302V31H27.7v-9.261c.988 1.617 3.03 2.659 5.314 2.659 5.211 0 8.313-3.705 8.313-8.756-.004-5.052-2.968-8.756-8.144-8.756m-.476 14.65c-3.2 0-5.279-2.358-5.279-5.894s2.079-5.894 5.279-5.894c3.169 0 5.278 2.358 5.278 5.894s-2.11 5.893-5.278 5.893M49.908 6.886c-4.055 0-7.12 2.49-7.392 5.827h3.066c.102-1.72 1.838-3.2 4.224-3.2 2.657 0 4.156 1.414 4.156 3.47 0 .607-.373 1.01-1.157 1.01h-3.578c-4.054 0-6.676 2.02-6.676 5.287 0 3.03 2.314 5.118 5.826 5.118 2.59 0 4.77-1.215 5.585-3.031v2.76h3.303V13.183c.004-3.771-2.929-6.297-7.357-6.297m4.054 9.801c0 3.133-1.807 5.118-4.94 5.118-1.909 0-3.2-1.045-3.2-2.592 0-1.786 1.465-2.929 3.712-2.929h4.428zM62 .328h-3.302v23.8H62zM11.59 0C4.668 0 0 5.176 0 12.186S4.669 24.37 11.59 24.37c6.884 0 11.553-5.175 11.553-12.185S18.474 0 11.589 0m0 21.238c-4.812 0-7.923-3.846-7.923-9.052 0-5.207 3.111-9.053 7.922-9.053s7.886 3.846 7.886 9.052c0 5.207-3.075 9.053-7.886 9.053"/></g><defs><clipPath id="a"><path fill="#fff" d="M0 0h62v31H0z"/></clipPath></defs></svg>